<svg width="43" height="42" viewBox="0 0 43 42" fill="none" xmlns="http://www.w3.org/2000/svg">
<path d="M34.9036 19.7928C32.3343 19.719 27.0637 18.7468 26.3845 26.3032C26.2719 26.6687 25.235 28.0104 24.3192 29.0565C23.9301 29.4564 23.7837 30.0599 23.9373 30.638C24.2766 31.9164 25.4024 31.7769 25.991 31.8176C25.992 31.8911 25.9927 31.9686 25.9927 32.049V34.5936C25.9848 35.6213 26.8386 36.9042 29.3218 36.7598L29.919 40.1615C29.9448 40.3087 30.0216 40.442 30.136 40.5381C30.2504 40.6342 30.395 40.6868 30.5444 40.6868H38.6248C38.7096 40.6868 38.7934 40.6698 38.8715 40.6368C38.9495 40.6039 39.0202 40.5557 39.0794 40.495C39.1385 40.4344 39.185 40.3625 39.2159 40.2837C39.2469 40.2048 39.2618 40.1205 39.2598 40.0358C39.223 38.5544 39.2338 34.3996 39.7201 32.9861C40.3714 31.0889 41.3538 31.2431 41.3538 26.6024C41.3535 22.5077 38.0391 19.8831 34.9036 19.7928ZM39.2214 31.0803C38.9995 31.4672 38.7482 31.9056 38.5185 32.5736C37.9873 34.1188 37.96 37.8473 37.9745 39.3747H31.0707L30.593 36.6607C30.926 36.6289 31.2811 36.5912 31.6495 36.5469C33.282 36.3497 33.5625 35.6554 33.7591 34.7681C33.8503 34.3563 34.1541 33.6801 33.4792 33.4625C32.7527 33.2302 32.6175 34.0492 32.5191 34.4932C32.3868 35.089 32.3665 35.1806 31.4973 35.2856C30.1595 35.447 28.9973 35.5202 28.4861 35.5202C27.9119 35.5179 27.2583 35.0762 27.2619 34.5991V32.0496C27.2618 31.7646 27.2558 31.4796 27.2438 31.1948C27.2366 31.0393 27.1725 30.8918 27.0637 30.7804C26.9548 30.669 26.8089 30.6015 26.6535 30.5908L25.2833 30.4956C25.1481 30.4195 25.0706 30.1271 25.261 29.9086C26.3185 28.7027 27.591 27.1205 27.6467 26.4367C28.0661 21.6825 30.1143 20.39 35.2566 21.083C37.8856 21.4371 40.0824 24.0286 40.0824 26.6034C40.0833 29.5775 39.684 30.2738 39.2214 31.0803ZM1.97852 26.6024C1.97852 31.2434 2.96092 31.0892 3.61225 32.9861C4.09853 34.4 4.10936 38.5544 4.07261 40.0358C4.07051 40.1206 4.08538 40.2048 4.11634 40.2837C4.1473 40.3626 4.19373 40.4345 4.25289 40.4951C4.31206 40.5558 4.38276 40.604 4.46084 40.6369C4.53892 40.6699 4.62279 40.6868 4.70753 40.6868H12.7879C13.0964 40.6868 13.3602 40.4654 13.4133 40.1615L14.0105 36.7598C16.4935 36.9039 17.3476 35.6209 17.3397 34.5936V32.049C17.3397 31.9686 17.3403 31.8908 17.3413 31.8176C17.9297 31.7766 19.0558 31.9161 19.3951 30.638C19.5483 30.0599 19.402 29.4564 19.0131 29.0565C18.0973 28.0104 17.0605 26.6687 16.9479 26.3032C16.2687 18.7468 10.998 19.7187 8.4288 19.7925C5.29291 19.8831 1.97852 22.5077 1.97852 26.6024ZM3.24869 26.6024C3.24869 24.0279 5.46025 21.5342 8.07442 21.082C12.9707 20.2355 15.265 21.6818 15.6843 26.4357C15.7401 27.1195 17.0125 28.7018 18.0701 29.9076C18.2604 30.1261 18.1833 30.4182 18.0478 30.4946L16.6775 30.5898C16.356 30.6121 16.102 30.872 16.0872 31.1939C16.0872 31.1939 16.0692 31.581 16.0692 32.0486V34.5982C16.0728 35.0749 15.4195 35.5169 14.845 35.5192C14.3337 35.5192 13.1715 35.4457 11.8337 35.2846C10.9645 35.1796 10.9442 35.0884 10.812 34.4922C10.7135 34.0482 10.5783 33.2292 9.85188 33.4615C9.17692 33.6791 9.48044 34.3553 9.57198 34.7671C9.76886 35.6547 10.0491 36.349 11.6815 36.5459C12.0503 36.5902 12.405 36.6283 12.7381 36.6598L12.2603 39.3737H5.35656C5.371 37.8463 5.34409 34.1178 4.81253 32.5726C4.58317 31.9049 4.33183 31.4662 4.10969 31.0793C3.64802 30.2738 3.24869 29.5772 3.24869 26.6024ZM13.4629 15.0938V18.7031C13.4629 19.2668 14.252 19.5202 14.6517 19.1225L18.6007 15.4143L25.0408 15.4156L28.663 19.1041C29.0531 19.5254 29.8691 19.2819 29.8691 18.7031V15.0938C32.4495 14.5717 35.3203 12.0268 35.3203 8.25234C35.3203 4.41984 32.8183 1.3125 28.9661 1.3125H14.9874C10.4346 1.3125 8.01175 4.48416 8.01175 8.25234C8.01175 11.5572 10.2584 14.4277 13.4629 15.0938ZM14.5303 2.61516L29.2129 2.61647C32.002 2.61647 34.0501 5.43244 34.0501 8.25267C34.0501 11.884 30.7721 13.8121 29.0826 13.9342C28.7502 13.9578 28.5566 14.1045 28.5566 14.4375V17.0625L25.783 14.34C25.6629 14.2104 25.4667 14.1025 25.2902 14.1025L18.3848 14.1094C18.2171 14.1094 18.0032 14.2035 17.884 14.3217L14.7754 17.0625V14.4375C14.7754 14.1173 14.6005 13.9266 14.2829 13.8866C11.4318 13.5289 9.28192 11.1067 9.28192 8.25234C9.28192 5.66508 11.04 2.61516 14.5303 2.61516Z" fill="#080808"/>
</svg>
