<svg width="34" height="34" viewBox="0 0 34 34" fill="none" xmlns="http://www.w3.org/2000/svg">
<path d="M15.791 7.62891C20.4861 7.62891 24.293 11.4342 24.293 16.1289C24.2928 16.7407 23.7964 17.2363 23.1846 17.2363C22.5729 17.2361 22.0773 16.7405 22.0771 16.1289C22.0771 12.6585 19.2627 9.84473 15.791 9.84473C15.1792 9.84463 14.6836 9.34819 14.6836 8.73633C14.6837 8.12453 15.1793 7.62901 15.791 7.62891Z" fill="#83B1F9" stroke="#83B1F9" stroke-width="0.2"/>
<path d="M15.791 3.59766C22.712 3.59766 28.3232 9.20703 28.3232 16.127C28.3231 19.1888 27.2229 21.9928 25.3984 24.1689L30.0137 28.7842C30.4462 29.2169 30.4463 29.9189 30.0137 30.3516C29.5811 30.7842 28.879 30.784 28.4463 30.3516L23.8311 25.7354C21.6549 27.5573 18.8513 28.6562 15.791 28.6562C8.87037 28.6561 3.26003 23.0466 3.25977 16.127C3.25977 9.20715 8.87021 3.59785 15.791 3.59766ZM15.791 5.81348C10.0936 5.81367 5.47559 10.4315 5.47559 16.127C5.47585 21.8223 10.0937 26.4393 15.791 26.4395C21.4885 26.4395 26.1072 21.8225 26.1074 16.127C26.1074 10.4314 21.4887 5.81348 15.791 5.81348Z" fill="#83B1F9" stroke="#83B1F9" stroke-width="0.2"/>
</svg>
