<svg width="29" height="29" viewBox="0 0 29 29" fill="none" xmlns="http://www.w3.org/2000/svg">
<g clip-path="url(#clip0_2835_7102)">
<path d="M26.4002 28.8H2.4002C1.6802 28.8 1.2002 28.32 1.2002 27.6V13.2C1.2002 12.48 1.6802 12 2.4002 12H26.4002C27.1202 12 27.6002 12.48 27.6002 13.2V27.6C27.6002 28.32 27.1202 28.8 26.4002 28.8ZM3.6002 26.4H25.2002V14.4H3.6002V26.4Z" fill="#83B1F9"/>
<path d="M27.598 14.3992H1.19805C0.478047 14.3992 -0.00195312 13.9192 -0.00195312 13.1992V8.39922C-0.00195312 7.67922 0.478047 7.19922 1.19805 7.19922H27.598C28.318 7.19922 28.798 7.67922 28.798 8.39922V13.1992C28.798 13.9192 28.318 14.3992 27.598 14.3992ZM2.39805 11.9992H26.398V9.59922H2.39805V11.9992Z" fill="#83B1F9"/>
<path d="M14.3982 28.8C13.6782 28.8 13.1982 28.32 13.1982 27.6V8.4C13.1982 7.68 13.6782 7.2 14.3982 7.2C15.1182 7.2 15.5982 7.68 15.5982 8.4V27.6C15.5982 28.32 15.1182 28.8 14.3982 28.8ZM17.9982 9.6C17.2782 9.6 16.7982 9.12 16.7982 8.4C16.7982 7.68 17.2782 7.2 17.9982 7.2C19.3182 7.2 20.3982 6.12 20.3982 4.8C20.3982 3.48 19.3182 2.4 17.9982 2.4C16.6782 2.4 15.5982 3.48 15.5982 4.8C15.5982 5.52 15.1182 6 14.3982 6C13.6782 6 13.1982 5.52 13.1982 4.8C13.1982 2.16 15.3582 0 17.9982 0C20.6382 0 22.7982 2.16 22.7982 4.8C22.7982 7.44 20.6382 9.6 17.9982 9.6Z" fill="#83B1F9"/>
<path d="M10.798 9.6C8.15805 9.6 5.99805 7.44 5.99805 4.8C5.99805 2.16 8.15805 0 10.798 0C13.438 0 15.598 2.16 15.598 4.8C15.598 5.52 15.118 6 14.398 6C13.678 6 13.198 5.52 13.198 4.8C13.198 3.48 12.118 2.4 10.798 2.4C9.47805 2.4 8.39805 3.48 8.39805 4.8C8.39805 6.12 9.47805 7.2 10.798 7.2C11.518 7.2 11.998 7.68 11.998 8.4C11.998 9.12 11.518 9.6 10.798 9.6Z" fill="#83B1F9"/>
<path d="M14.3982 11.9996C13.6782 11.9996 13.1982 11.5196 13.1982 10.7996V4.79961C13.1982 4.07961 13.6782 3.59961 14.3982 3.59961C15.1182 3.59961 15.5982 4.07961 15.5982 4.79961V10.7996C15.5982 11.5196 15.1182 11.9996 14.3982 11.9996Z" fill="#83B1F9"/>
</g>
<defs>
<clipPath id="clip0_2835_7102">
<rect width="28.8" height="28.8" fill="white"/>
</clipPath>
</defs>
</svg>
