<svg width="478" height="68" viewBox="0 0 478 68" fill="none" xmlns="http://www.w3.org/2000/svg">
<path d="M185.987 3.96103C187.918 5.88459 188.886 8.607 188.886 12.1283C188.886 15.8282 187.918 18.6978 185.987 20.737C184.055 22.7762 181.322 23.801 177.791 23.801L173.509 23.8431V32.189H165.411V1.07568H177.791C181.322 1.07568 184.055 2.03746 185.987 3.96103ZM180.225 15.5865C180.889 14.8454 181.216 13.7838 181.216 12.3911C181.216 11.0299 180.884 9.98923 180.225 9.26396C179.561 8.53868 178.621 8.17604 177.404 8.17604H173.509V16.7007H177.404C178.626 16.6954 179.566 16.3275 180.225 15.5865Z" fill="#649EF7"/>
<path d="M192.002 1.07568H214.306V8.17604H200.095V13.0585H212.978V20.1589H200.095V25.0834H214.693V32.1838H191.997V1.07568H192.002Z" fill="#649EF7"/>
<path d="M234.586 32.189L230.964 23.801H226.682V32.189H218.583V1.07568H231.314C234.974 1.07568 237.808 2.03746 239.818 3.96103C241.828 5.88459 242.832 8.607 242.832 12.1283C242.832 14.4092 242.436 16.3801 241.643 18.0514C240.85 19.7227 239.717 21.0471 238.237 22.0246L243.763 32.189H234.586ZM226.686 16.6954H231.318C232.54 16.6954 233.48 16.3275 234.139 15.5865C234.803 14.8454 235.13 13.7838 235.13 12.3911C235.13 11.0299 234.798 9.98923 234.139 9.26396C233.476 8.53868 232.535 8.17604 231.318 8.17604H226.686V16.6954Z" fill="#649EF7"/>
<path d="M246.81 1.07568H267.985V8.17604H254.904V14.3882H267.049V21.4886H254.904V32.1838H246.806V1.07568H246.81Z" fill="#649EF7"/>
<path d="M291.829 2.58405C294.101 3.97679 295.876 5.88984 297.162 8.33371C298.448 10.7776 299.088 13.521 299.088 16.5693C299.088 19.6491 298.448 22.4241 297.162 24.8942C295.876 27.3643 294.101 29.3037 291.829 30.7069C289.556 32.1102 287.021 32.8144 284.219 32.8144C281.389 32.8144 278.845 32.1102 276.591 30.7069C274.332 29.3037 272.562 27.3643 271.276 24.8942C269.99 22.4241 269.349 19.6491 269.349 16.5693C269.349 13.521 269.99 10.7776 271.276 8.33371C272.562 5.89509 274.332 3.97679 276.591 2.58405C278.849 1.1913 281.393 0.497559 284.219 0.497559C287.021 0.497559 289.561 1.1913 291.829 2.58405ZM281.011 9.28497C279.988 10.026 279.167 11.0404 278.559 12.3227C277.95 13.6104 277.642 15.0399 277.642 16.6061C277.642 18.1722 277.946 19.6123 278.559 20.9104C279.167 22.2138 279.988 23.2387 281.011 23.9955C282.034 24.7523 283.145 25.1254 284.339 25.1254C285.505 25.1254 286.588 24.747 287.588 23.9955C288.589 23.2387 289.372 22.2191 289.944 20.9315C290.515 19.6438 290.801 18.2038 290.801 16.6061C290.801 15.0399 290.515 13.6104 289.944 12.3227C289.372 11.0351 288.593 10.0208 287.607 9.28497C286.62 8.54393 285.528 8.17603 284.339 8.17603C283.145 8.17603 282.034 8.54393 281.011 9.28497Z" fill="#649EF7"/>
<path d="M318.125 32.189L314.502 23.801H310.22V32.189H302.121V1.07568H314.852C318.512 1.07568 321.347 2.03746 323.356 3.96103C325.366 5.88459 326.371 8.607 326.371 12.1283C326.371 14.4092 325.974 16.3801 325.181 18.0514C324.389 19.7227 323.255 21.0471 321.775 22.0246L327.302 32.189H318.125ZM310.224 16.6954H314.857C316.078 16.6954 317.018 16.3275 317.678 15.5865C318.341 14.8454 318.669 13.7838 318.669 12.3911C318.669 11.0299 318.337 9.98923 317.678 9.26396C317.014 8.53868 316.074 8.17604 314.857 8.17604H310.224V16.6954Z" fill="#649EF7"/>
<path d="M330.348 1.07568H339.028L346.347 18.3404L353.625 1.07568H362.304V32.189H355.183V13.726L348.956 29.1302H343.701L337.474 13.726V32.189H330.348V1.07568Z" fill="#649EF7"/>
<path d="M386.872 32.189L385.277 27.2172H374.261L372.624 32.189H364.295L375.934 1.07568H384.263L395.514 32.189H386.872ZM376.515 20.469H383.133L379.865 10.3046L376.515 20.469Z" fill="#649EF7"/>
<path d="M415.988 1.07568H423.386V32.189H416.495L404.935 14.877V32.189H397.496V1.07568H404.424L415.984 18.4298V1.07568H415.988Z" fill="#649EF7"/>
<path d="M444.658 9.306C443.478 8.54919 442.33 8.17603 441.215 8.17603C439.993 8.17603 438.892 8.53342 437.905 9.24293C436.919 9.95244 436.14 10.9352 435.568 12.1966C434.997 13.4527 434.711 14.8665 434.711 16.4379C434.711 18.0093 434.997 19.4178 435.568 20.6792C436.14 21.9353 436.919 22.9286 437.905 23.6539C438.892 24.3792 439.993 24.7418 441.215 24.7418C442.252 24.7418 443.363 24.4159 444.543 23.7642C445.723 23.1125 446.783 22.2243 447.714 21.0996L452.383 26.781C450.903 28.6152 449.12 30.0815 447.032 31.1747C444.944 32.2679 442.874 32.8144 440.823 32.8144C438.099 32.8144 435.637 32.1102 433.448 30.7069C431.254 29.3037 429.535 27.3538 428.29 24.8679C427.046 22.382 426.424 19.6018 426.424 16.522C426.424 13.5052 427.06 10.7723 428.332 8.33371C429.604 5.89509 431.355 3.97679 433.586 2.58405C435.817 1.1913 438.32 0.497559 441.099 0.497559C443.151 0.497559 445.202 1.0021 447.248 2.00592C449.299 3.00975 451.009 4.36045 452.388 6.04751L447.718 12.3963C446.856 11.0929 445.838 10.0628 444.658 9.306Z" fill="#649EF7"/>
<path d="M454.84 1.07568H477.144V8.17604H462.933V13.0585H475.816V20.1589H462.933V25.0834H477.531V32.1838H454.835V1.07568H454.84Z" fill="#649EF7"/>
<path d="M165.416 39.8833H172.583V50.8465H181.165V39.8833H188.333V67.4333H181.165V57.1743H172.583V67.4333H165.416V39.8833Z" fill="#649EF7"/>
<path d="M192.403 39.8833H212.153V46.169H199.575V50.4944H210.983V56.7802H199.575V61.1423H212.499V67.4333H192.403V39.8833Z" fill="#649EF7"/>
<path d="M233.623 67.4333L232.208 63.0291H222.455L221.008 67.4333H213.633L223.939 39.8833H231.314L241.275 67.4333H233.623ZM224.455 57.0587H230.314L227.419 48.0558L224.455 57.0587Z" fill="#649EF7"/>
<path d="M243.035 39.8833H250.203V60.5957H260.334V67.4333H243.031V39.8833H243.035Z" fill="#649EF7"/>
<path d="M260.993 39.8833H282.223V46.4055H275.19V67.4333H267.985V46.4055H260.988V39.8833H260.993Z" fill="#649EF7"/>
<path d="M284.463 39.8833H291.631V50.8465H300.213V39.8833H307.381V67.4333H300.213V57.1743H291.631V67.4333H284.463V39.8833Z" fill="#649EF7"/>
<path d="M319.378 43.5778C318.194 43.5778 317.226 43.8511 316.465 44.4029C315.705 44.9547 315.327 45.7851 315.327 46.8993C315.327 48.0135 315.705 48.8649 316.465 49.4536C317.221 50.0422 318.839 50.6781 321.31 51.3614C323.78 52.0446 325.642 53.0011 326.892 54.2309C328.145 55.4608 328.767 57.2739 328.767 59.6758C328.767 62.0723 327.975 64.0169 326.389 65.5095C324.804 67.0021 322.725 67.7484 320.153 67.7484C316.382 67.7484 313.041 66.2663 310.123 63.3074L312.672 59.8072C315.106 62.2195 317.636 63.423 320.254 63.423C321.563 63.423 322.605 63.1024 323.375 62.4613C324.144 61.8201 324.532 60.9687 324.532 59.907C324.532 58.8454 324.167 58.0203 323.444 57.4316C322.72 56.843 321.471 56.3069 319.706 55.8181C317.936 55.3346 316.59 54.8879 315.673 54.4832C314.755 54.0785 313.935 53.5477 313.225 52.8908C311.801 51.6609 311.086 49.7742 311.086 47.2304C311.086 44.692 311.898 42.7316 313.515 41.3546C315.133 39.9777 317.138 39.2944 319.531 39.2944C321.07 39.2944 322.6 39.5835 324.117 40.1564C325.633 40.7345 326.942 41.5438 328.048 42.595L325.877 46.09C325.163 45.3594 324.2 44.755 322.983 44.282C321.761 43.8143 320.563 43.5778 319.378 43.5778Z" fill="white"/>
<path d="M339.217 61.1474C340.318 62.6137 341.812 63.3495 343.697 63.3495C345.582 63.3495 347.075 62.6189 348.177 61.1474C349.279 59.681 349.832 57.6892 349.832 55.1717V39.9619H353.897V55.3662C353.897 59.3237 352.943 62.3667 351.035 64.5057C349.126 66.6395 346.679 67.7064 343.692 67.7064C340.705 67.7064 338.258 66.6395 336.35 64.5057C334.441 62.3719 333.487 59.3237 333.487 55.3662V39.9619H337.553V55.1717C337.562 57.6892 338.115 59.681 339.217 61.1474Z" fill="white"/>
<path d="M376.542 42.3585C378.22 43.9562 379.059 46.4211 379.059 49.7479C379.059 53.0747 378.202 55.5133 376.492 57.0585C374.782 58.6036 372.154 59.3762 368.614 59.3762H364.342V67.4331H360.276V39.9619H368.55C372.201 39.9619 374.865 40.7608 376.542 42.3585ZM373.666 53.7001C374.482 52.7173 374.888 51.2773 374.888 49.3748C374.888 47.4775 374.371 46.132 373.339 45.3437C372.306 44.5606 370.684 44.1664 368.481 44.1664H364.346V55.1717H369.066C371.316 55.1717 372.85 54.6829 373.666 53.7001Z" fill="white"/>
<path d="M400.119 42.3585C401.796 43.9562 402.635 46.4211 402.635 49.7479C402.635 53.0747 401.778 55.5133 400.068 57.0585C398.358 58.6036 395.731 59.3762 392.191 59.3762H387.918V67.4331H383.853V39.9619H392.126C395.777 39.9619 398.441 40.7608 400.119 42.3585ZM397.242 53.7001C398.058 52.7173 398.464 51.2773 398.464 49.3748C398.464 47.4775 397.948 46.132 396.915 45.3437C395.883 44.5606 394.26 44.1664 392.057 44.1664H387.923V55.1717H392.642C394.892 55.1717 396.427 54.6829 397.242 53.7001Z" fill="white"/>
<path d="M427.59 63.6434C425.156 66.3553 422.146 67.7113 418.56 67.7113C414.974 67.7113 411.964 66.3553 409.531 63.6434C407.092 60.9315 405.876 57.5521 405.876 53.5053C405.876 49.4585 407.092 46.0791 409.531 43.3672C411.964 40.6553 414.974 39.2993 418.56 39.2993C422.146 39.2993 425.156 40.6553 427.59 43.3672C430.023 46.0791 431.245 49.4585 431.245 53.5053C431.245 57.5521 430.023 60.9315 427.59 63.6434ZM424.608 46.447C422.967 44.5076 420.948 43.5406 418.56 43.5406C416.168 43.5406 414.154 44.5129 412.513 46.447C410.872 48.3863 410.047 50.7356 410.047 53.5C410.047 56.2645 410.867 58.6138 412.513 60.5531C414.154 62.4924 416.173 63.4595 418.56 63.4595C420.948 63.4595 422.967 62.4924 424.608 60.5531C426.249 58.6138 427.074 56.2645 427.074 53.5C427.074 50.7356 426.249 48.3863 424.608 46.447Z" fill="white"/>
<path d="M455.609 48.886C455.609 53.4216 453.872 56.2754 450.406 57.4527L456.711 67.4331H451.539L445.782 58.199H440.44V67.4331H436.375V39.9619H445.34C449.018 39.9619 451.645 40.6662 453.231 42.0852C454.817 43.5042 455.609 45.7694 455.609 48.886ZM450.198 52.7751C451.028 51.9658 451.438 50.6624 451.438 48.865C451.438 47.0728 451.014 45.8377 450.161 45.1702C449.309 44.5028 447.792 44.1664 445.612 44.1664H440.44V53.9892H445.506C447.811 53.9945 449.373 53.5898 450.198 52.7751Z" fill="white"/>
<path d="M470.225 44.2085V67.4331H466.16V44.2085H458.854V39.9619H477.536V44.2085H470.225Z" fill="white"/>
<path d="M0 47.6336C0 41.1249 1.66772 36.225 5.00317 32.9391C8.33861 29.6533 12.858 28.0077 18.5661 28.0077H30.9726C32.8569 28.0077 34.4509 27.2454 35.7639 25.7155C37.0769 24.1856 37.7311 22.3139 37.7311 20.1005C37.7311 19.0596 37.5468 18.0659 37.1736 17.1248C36.8005 16.1838 36.3167 15.3531 35.7178 14.6328C35.1189 13.9178 34.4187 13.35 33.6217 12.9242C32.82 12.5036 31.9678 12.288 31.0556 12.288H0V0.474609H29.4339C32.6864 0.474609 35.4783 0.995094 37.8186 2.03606C40.1589 3.07703 42.08 4.51231 43.5957 6.33137C45.1068 8.1557 46.2171 10.2534 46.9312 12.6298C47.6453 15.0061 48 17.5612 48 20.2951C48 22.6399 47.6729 24.9794 47.0141 27.3242C46.3599 29.669 45.2865 31.7667 43.8077 33.6226C42.3242 35.4785 40.3985 36.9768 38.0305 38.1124C35.6625 39.2533 32.797 39.8211 29.4293 39.8211H16.7694C14.945 39.8211 13.4155 40.6202 12.19 42.2132C10.9646 43.8115 10.3519 45.6779 10.3519 47.8281V67.7485H0V47.6336Z" fill="#649EF7"/>
<path d="M154 48.1226C154 54.6312 152.352 59.5312 149.057 62.8171C145.762 66.1029 141.162 67.7485 135.261 67.7485H13V56.0297H137.242C139.075 56.0297 140.593 55.2359 141.796 53.6376C142.999 52.0446 143.601 50.1046 143.601 47.8282C143.601 45.6779 142.999 43.8115 141.796 42.2132C140.593 40.6202 139.075 39.8211 137.242 39.8211H120.568C117.129 39.8211 114.223 39.2375 111.844 38.0651C109.465 36.8927 107.545 35.3628 106.087 33.4754C104.624 31.588 103.565 29.4903 102.907 27.177C102.25 24.869 101.917 22.5715 101.917 20.2951C101.917 17.5612 102.259 15.0061 102.949 12.6298C103.639 10.2534 104.74 8.1557 106.258 6.33137C107.776 4.51231 109.71 3.07703 112.061 2.03606C114.412 0.995094 117.245 0.474609 120.572 0.474609H150.14V12.288H118.939C118.022 12.288 117.161 12.4983 116.361 12.9242C115.556 13.35 114.857 13.9178 114.255 14.6328C113.653 15.3478 113.168 16.1785 112.793 17.1248C112.418 18.0712 112.233 19.0648 112.233 20.1005C112.233 22.3139 112.89 24.1856 114.209 25.7155C115.528 27.2454 117.129 28.0077 119.022 28.0077H135.437C141.167 28.0077 145.693 29.6533 149.016 32.9392C152.339 36.225 154 41.1249 154 47.6336V48.1226Z" fill="white"/>
<path d="M99 0.474609H88.7321V28.1033H61.3555V0.474609H51V52.9254H61.3555V39.9578H88.7321V52.9254H99V0.474609Z" fill="#649EF7"/>
</svg>